<svg xmlns="http://www.w3.org/2000/svg" xmlns:svg="http://www.w3.org/2000/svg" xmlns:xlink="http://www.w3.org/1999/xlink" id="레이어_1" width="347.1" height="387.5" x="0" y="0" version="1.1" viewBox="0 0 347.1 387.5" xml:space="preserve"><metadata id="metadata471"/><style id="style2" type="text/css">.st0{fill:#ebebeb}.st3,.st4{fill:none;stroke:#ebebeb;stroke-width:2;stroke-miterlimit:10}.st4{stroke-width:5;stroke-linecap:round;stroke-linejoin:round}.st7{clip-path:url(#SVGID_4_)}.st8{fill:none;stroke:#ff0092;stroke-width:5;stroke-miterlimit:10}</style><g id="g194" transform="translate(-1297.9,-57.699999)"><circle id="circle180" cx="1456.3" cy="100.8" r="5.2" class="st0" style="fill:#ebebeb"/><circle id="circle182" cx="1439.9" cy="117.2" r="5.2" class="st0" style="fill:#ebebeb"/><circle id="circle184" cx="1423.5" cy="133.7" r="5.2" class="st0" style="fill:#ebebeb"/><circle id="circle186" cx="1407.1" cy="150.2" r="5.2" class="st0" style="fill:#ebebeb"/><circle id="circle188" cx="1390.8" cy="166.6" r="5.2" class="st0" style="fill:#ebebeb"/><circle id="ellipse190" cx="1374.4" cy="183.1" r="5.2" class="st0" transform="matrix(1,-0.00185806,0.00185806,1,-0.3378,2.554)" style="fill:#ebebeb"/><circle id="ellipse192" cx="1358" cy="199.5" r="5.2" class="st0" transform="matrix(1,-0.00185816,0.00185816,1,-0.3684,2.5237)" style="fill:#ebebeb"/></g><g id="g226" transform="translate(-1297.9,-57.699999)"><circle id="circle212" cx="1641.7" cy="126.4" r="3.3" class="st0" style="fill:#ebebeb"/><circle id="circle214" cx="1631.1" cy="137" r="3.3" class="st0" style="fill:#ebebeb"/><circle id="circle216" cx="1620.6" cy="147.5" r="3.3" class="st0" style="fill:#ebebeb"/><circle id="circle218" cx="1610" cy="158.1" r="3.3" class="st0" style="fill:#ebebeb"/><circle id="circle220" cx="1599.5" cy="168.6" r="3.3" class="st0" style="fill:#ebebeb"/><circle id="circle222" cx="1588.9" cy="179.2" r="3.3" class="st0" style="fill:#ebebeb"/><circle id="circle224" cx="1578.4" cy="189.7" r="3.3" class="st0" style="fill:#ebebeb"/></g><g id="g236" transform="translate(-1297.9,-57.699999)"><circle id="circle228" cx="1553.1" cy="67.1" r="8.4" class="st3" style="fill:none;stroke:#ebebeb;stroke-width:2;stroke-miterlimit:10"/><circle id="circle230" cx="1530.6" cy="89.6" r="8.4" class="st3" style="fill:none;stroke:#ebebeb;stroke-width:2;stroke-miterlimit:10"/><circle id="circle232" cx="1508.1" cy="112.1" r="8.4" class="st3" style="fill:none;stroke:#ebebeb;stroke-width:2;stroke-miterlimit:10"/><circle id="circle234" cx="1485.6" cy="134.6" r="8.4" class="st3" style="fill:none;stroke:#ebebeb;stroke-width:2;stroke-miterlimit:10"/></g><line id="line238" x1="159.9" x2="23.8" y1="105" y2="241.1" class="st4" style="fill:none;stroke:#ebebeb;stroke-width:5;stroke-linecap:round;stroke-linejoin:round;stroke-miterlimit:10"/><circle id="circle242" cx="97.8" cy="287.8" r="31" class="st0" style="fill:#ebebeb"/><g id="g388" transform="translate(-1297.9,-57.699999)"><g id="g260"><circle id="circle244" cx="1364.8" cy="314" r="2.6" class="st0" style="fill:#ebebeb"/><circle id="circle246" cx="1374" cy="323.2" r="2.6" class="st0" style="fill:#ebebeb"/><circle id="circle248" cx="1383.2" cy="332.4" r="2.6" class="st0" style="fill:#ebebeb"/><circle id="circle250" cx="1392.4" cy="341.6" r="2.6" class="st0" style="fill:#ebebeb"/><circle id="circle252" cx="1401.6" cy="350.8" r="2.6" class="st0" style="fill:#ebebeb"/><circle id="circle254" cx="1410.8" cy="360" r="2.6" class="st0" style="fill:#ebebeb"/><circle id="circle256" cx="1419.9" cy="369.1" r="2.6" class="st0" style="fill:#ebebeb"/><circle id="circle258" cx="1429.1" cy="378.3" r="2.6" class="st0" style="fill:#ebebeb"/></g><g id="g278"><circle id="circle262" cx="1355.6" cy="323.2" r="2.6" class="st0" style="fill:#ebebeb"/><circle id="circle264" cx="1364.8" cy="332.4" r="2.6" class="st0" style="fill:#ebebeb"/><circle id="circle266" cx="1374" cy="341.6" r="2.6" class="st0" style="fill:#ebebeb"/><circle id="circle268" cx="1383.2" cy="350.8" r="2.6" class="st0" style="fill:#ebebeb"/><circle id="circle270" cx="1392.4" cy="360" r="2.6" class="st0" style="fill:#ebebeb"/><circle id="circle272" cx="1401.6" cy="369.1" r="2.6" class="st0" style="fill:#ebebeb"/><circle id="circle274" cx="1410.8" cy="378.3" r="2.6" class="st0" style="fill:#ebebeb"/><path id="path276" d="m 1421.8,389.3 c -1,1 -2.6,1 -3.6,0 -1,-1 -1,-2.6 0,-3.6 1,-1 2.6,-1 3.6,0 1,1 1,2.6 0,3.6 z" class="st0" style="fill:#ebebeb"/></g><g id="g296"><circle id="circle280" cx="1346.4" cy="332.4" r="2.6" class="st0" style="fill:#ebebeb"/><circle id="circle282" cx="1355.6" cy="341.6" r="2.6" class="st0" style="fill:#ebebeb"/><circle id="circle284" cx="1364.8" cy="350.8" r="2.6" class="st0" style="fill:#ebebeb"/><circle id="circle286" cx="1374" cy="360" r="2.6" class="st0" style="fill:#ebebeb"/><circle id="circle288" cx="1383.2" cy="369.1" r="2.6" class="st0" style="fill:#ebebeb"/><circle id="circle290" cx="1392.4" cy="378.3" r="2.6" class="st0" style="fill:#ebebeb"/><path id="path292" d="m 1403.4,389.3 c -1,1 -2.6,1 -3.6,0 -1,-1 -1,-2.6 0,-3.6 1,-1 2.6,-1 3.6,0 1,1 1,2.6 0,3.6 z" class="st0" style="fill:#ebebeb"/><circle id="circle294" cx="1410.8" cy="396.7" r="2.6" class="st0" style="fill:#ebebeb"/></g><g id="g314"><circle id="circle298" cx="1337.2" cy="341.6" r="2.6" class="st0" style="fill:#ebebeb"/><circle id="circle300" cx="1346.4" cy="350.8" r="2.6" class="st0" style="fill:#ebebeb"/><circle id="circle302" cx="1355.6" cy="360" r="2.6" class="st0" style="fill:#ebebeb"/><circle id="circle304" cx="1364.8" cy="369.1" r="2.6" class="st0" style="fill:#ebebeb"/><circle id="circle306" cx="1374" cy="378.3" r="2.6" class="st0" style="fill:#ebebeb"/><path id="path308" d="m 1385,389.3 c -1,1 -2.6,1 -3.6,0 -1,-1 -1,-2.6 0,-3.6 1,-1 2.6,-1 3.6,0 1,1 1,2.6 0,3.6 z" class="st0" style="fill:#ebebeb"/><circle id="circle310" cx="1392.4" cy="396.7" r="2.6" class="st0" style="fill:#ebebeb"/><circle id="circle312" cx="1401.6" cy="405.9" r="2.6" class="st0" style="fill:#ebebeb"/></g><g id="g332"><circle id="circle316" cx="1328.1" cy="350.8" r="2.6" class="st0" style="fill:#ebebeb"/><circle id="circle318" cx="1337.2" cy="360" r="2.6" class="st0" style="fill:#ebebeb"/><circle id="circle320" cx="1346.4" cy="369.1" r="2.6" class="st0" style="fill:#ebebeb"/><circle id="circle322" cx="1355.6" cy="378.3" r="2.6" class="st0" style="fill:#ebebeb"/><path id="path324" d="m 1366.6,389.3 c -1,1 -2.6,1 -3.6,0 -1,-1 -1,-2.6 0,-3.6 1,-1 2.6,-1 3.6,0 1,1 1,2.6 0,3.6 z" class="st0" style="fill:#ebebeb"/><circle id="circle326" cx="1374" cy="396.7" r="2.6" class="st0" style="fill:#ebebeb"/><circle id="circle328" cx="1383.2" cy="405.9" r="2.6" class="st0" style="fill:#ebebeb"/><path id="path330" d="m 1394.2,416.9 c -1,1 -2.6,1 -3.6,0 -1,-1 -1,-2.6 0,-3.6 1,-1 2.6,-1 3.6,0 1,1 1,2.6 0,3.6 z" class="st0" style="fill:#ebebeb"/></g><g id="g350"><circle id="circle334" cx="1318.9" cy="360" r="2.6" class="st0" style="fill:#ebebeb"/><circle id="circle336" cx="1328.1" cy="369.1" r="2.6" class="st0" style="fill:#ebebeb"/><circle id="circle338" cx="1337.2" cy="378.3" r="2.6" class="st0" style="fill:#ebebeb"/><path id="path340" d="m 1348.2,389.3 c -1,1 -2.6,1 -3.6,0 -1,-1 -1,-2.6 0,-3.6 1,-1 2.6,-1 3.6,0 1,1 1,2.6 0,3.6 z" class="st0" style="fill:#ebebeb"/><circle id="circle342" cx="1355.6" cy="396.7" r="2.6" class="st0" style="fill:#ebebeb"/><circle id="circle344" cx="1364.8" cy="405.9" r="2.6" class="st0" style="fill:#ebebeb"/><path id="path346" d="m 1375.8,416.9 c -1,1 -2.6,1 -3.6,0 -1,-1 -1,-2.6 0,-3.6 1,-1 2.6,-1 3.6,0 1,1 1,2.6 0,3.6 z" class="st0" style="fill:#ebebeb"/><circle id="circle348" cx="1383.2" cy="424.3" r="2.6" class="st0" style="fill:#ebebeb"/></g><g id="g368"><circle id="circle352" cx="1309.7" cy="369.1" r="2.6" class="st0" style="fill:#ebebeb"/><circle id="circle354" cx="1318.9" cy="378.3" r="2.6" class="st0" style="fill:#ebebeb"/><path id="path356" d="m 1329.9,389.3 c -1,1 -2.6,1 -3.6,0 -1,-1 -1,-2.6 0,-3.6 1,-1 2.6,-1 3.6,0 1,1 1,2.6 0,3.6 z" class="st0" style="fill:#ebebeb"/><circle id="circle358" cx="1337.2" cy="396.7" r="2.6" class="st0" style="fill:#ebebeb"/><circle id="circle360" cx="1346.4" cy="405.9" r="2.6" class="st0" style="fill:#ebebeb"/><path id="path362" d="m 1357.4,416.9 c -1,1 -2.6,1 -3.6,0 -1,-1 -1,-2.6 0,-3.6 1,-1 2.6,-1 3.6,0 1,1 1,2.6 0,3.6 z" class="st0" style="fill:#ebebeb"/><circle id="circle364" cx="1364.8" cy="424.3" r="2.6" class="st0" style="fill:#ebebeb"/><path id="path366" d="m 1375.8,435.3 c -1,1 -2.6,1 -3.6,0 -1,-1 -1,-2.6 0,-3.6 1,-1 2.6,-1 3.6,0 1,1 1,2.6 0,3.6 z" class="st0" style="fill:#ebebeb"/></g><g id="g386"><circle id="circle370" cx="1300.5" cy="378.3" r="2.6" class="st0" style="fill:#ebebeb"/><path id="path372" d="m 1311.5,389.3 c -1,1 -2.6,1 -3.6,0 -1,-1 -1,-2.6 0,-3.6 1,-1 2.6,-1 3.6,0 1,1 1,2.6 0,3.6 z" class="st0" style="fill:#ebebeb"/><circle id="circle374" cx="1318.9" cy="396.7" r="2.6" class="st0" style="fill:#ebebeb"/><circle id="circle376" cx="1328.1" cy="405.9" r="2.6" class="st0" style="fill:#ebebeb"/><path id="path378" d="m 1339.1,416.9 c -1,1 -2.6,1 -3.6,0 -1,-1 -1,-2.6 0,-3.6 1,-1 2.6,-1 3.6,0 1,1 1,2.6 0,3.6 z" class="st0" style="fill:#ebebeb"/><circle id="circle380" cx="1346.4" cy="424.3" r="2.6" class="st0" style="fill:#ebebeb"/><path id="path382" d="m 1357.4,435.3 c -1,1 -2.6,1 -3.6,0 -1,-1 -1,-2.6 0,-3.6 1,-1 2.6,-1 3.6,0 1,1 1,2.6 0,3.6 z" class="st0" style="fill:#ebebeb"/><circle id="circle384" cx="1364.8" cy="442.6" r="2.6" class="st0" style="fill:#ebebeb"/></g></g><g id="g464" transform="translate(-1297.9,-57.699999)"><g id="g462"><defs id="defs401"><circle id="SVGID_3_" cx="1449.2" cy="308.4" r="51.9"/></defs><clipPath id="SVGID_4_"><use xlink:href="#SVGID_3_" style="overflow:visible" id="use403" width="100%" height="100%" x="0" y="0"/></clipPath><g id="g460" class="st7" clip-path="url(#SVGID_4_)"><line id="line406" x1="1586.6" x2="1304.9" y1="-9.9" y2="271.8" class="st8" style="fill:none;stroke:#ff0092;stroke-width:5;stroke-miterlimit:10"/><line id="line408" x1="1586.6" x2="1304.9" y1="4.2" y2="285.9" class="st8" style="fill:none;stroke:#ff0092;stroke-width:5;stroke-miterlimit:10"/><line id="line410" x1="1586.6" x2="1304.9" y1="18.3" y2="300" class="st8" style="fill:none;stroke:#ff0092;stroke-width:5;stroke-miterlimit:10"/><line id="line412" x1="1586.6" x2="1304.9" y1="32.4" y2="314.1" class="st8" style="fill:none;stroke:#ff0092;stroke-width:5;stroke-miterlimit:10"/><line id="line414" x1="1586.6" x2="1304.9" y1="46.5" y2="328.2" class="st8" style="fill:none;stroke:#ff0092;stroke-width:5;stroke-miterlimit:10"/><line id="line416" x1="1586.6" x2="1304.9" y1="60.6" y2="342.3" class="st8" style="fill:none;stroke:#ff0092;stroke-width:5;stroke-miterlimit:10"/><line id="line418" x1="1586.6" x2="1304.9" y1="74.7" y2="356.4" class="st8" style="fill:none;stroke:#ff0092;stroke-width:5;stroke-miterlimit:10"/><line id="line420" x1="1586.6" x2="1304.9" y1="88.8" y2="370.5" class="st8" style="fill:none;stroke:#ff0092;stroke-width:5;stroke-miterlimit:10"/><line id="line422" x1="1586.6" x2="1304.9" y1="102.9" y2="384.6" class="st8" style="fill:none;stroke:#ff0092;stroke-width:5;stroke-miterlimit:10"/><line id="line424" x1="1586.6" x2="1304.9" y1="117" y2="398.7" class="st8" style="fill:none;stroke:#ff0092;stroke-width:5;stroke-miterlimit:10"/><line id="line426" x1="1586.6" x2="1304.9" y1="131.1" y2="412.8" class="st8" style="fill:none;stroke:#ff0092;stroke-width:5;stroke-miterlimit:10"/><line id="line428" x1="1586.6" x2="1304.9" y1="145.2" y2="426.9" class="st8" style="fill:none;stroke:#ff0092;stroke-width:5;stroke-miterlimit:10"/><line id="line430" x1="1586.6" x2="1304.9" y1="159.3" y2="441" class="st8" style="fill:none;stroke:#ff0092;stroke-width:5;stroke-miterlimit:10"/><line id="line432" x1="1586.6" x2="1304.9" y1="173.4" y2="455.1" class="st8" style="fill:none;stroke:#ff0092;stroke-width:5;stroke-miterlimit:10"/><line id="line434" x1="1586.6" x2="1304.9" y1="187.5" y2="469.2" class="st8" style="fill:none;stroke:#ff0092;stroke-width:5;stroke-miterlimit:10"/><line id="line436" x1="1586.6" x2="1304.9" y1="201.6" y2="483.3" class="st8" style="fill:none;stroke:#ff0092;stroke-width:5;stroke-miterlimit:10"/><line id="line438" x1="1586.6" x2="1304.9" y1="215.7" y2="497.4" class="st8" style="fill:none;stroke:#ff0092;stroke-width:5;stroke-miterlimit:10"/><line id="line440" x1="1586.6" x2="1304.9" y1="229.8" y2="511.5" class="st8" style="fill:none;stroke:#ff0092;stroke-width:5;stroke-miterlimit:10"/><line id="line442" x1="1586.6" x2="1304.9" y1="243.9" y2="525.6" class="st8" style="fill:none;stroke:#ff0092;stroke-width:5;stroke-miterlimit:10"/><line id="line444" x1="1586.6" x2="1304.9" y1="258" y2="539.7" class="st8" style="fill:none;stroke:#ff0092;stroke-width:5;stroke-miterlimit:10"/><line id="line446" x1="1586.6" x2="1304.9" y1="272.1" y2="553.8" class="st8" style="fill:none;stroke:#ff0092;stroke-width:5;stroke-miterlimit:10"/><line id="line448" x1="1586.6" x2="1304.9" y1="286.2" y2="567.9" class="st8" style="fill:none;stroke:#ff0092;stroke-width:5;stroke-miterlimit:10"/><line id="line450" x1="1586.6" x2="1304.9" y1="300.3" y2="582" class="st8" style="fill:none;stroke:#ff0092;stroke-width:5;stroke-miterlimit:10"/><line id="line452" x1="1586.6" x2="1304.9" y1="314.4" y2="596.1" class="st8" style="fill:none;stroke:#ff0092;stroke-width:5;stroke-miterlimit:10"/><line id="line454" x1="1586.6" x2="1304.9" y1="328.5" y2="610.2" class="st8" style="fill:none;stroke:#ff0092;stroke-width:5;stroke-miterlimit:10"/><line id="line456" x1="1586.6" x2="1304.9" y1="342.6" y2="624.3" class="st8" style="fill:none;stroke:#ff0092;stroke-width:5;stroke-miterlimit:10"/><line id="line458" x1="1586.6" x2="1304.9" y1="356.7" y2="638.4" class="st8" style="fill:none;stroke:#ff0092;stroke-width:5;stroke-miterlimit:10"/></g></g></g></svg>