<svg xmlns="http://www.w3.org/2000/svg" xmlns:svg="http://www.w3.org/2000/svg" xmlns:xlink="http://www.w3.org/1999/xlink" id="레이어_1" width="244.911" height="387.5" x="0" y="0" version="1.1" viewBox="0 0 244.911 387.5" xml:space="preserve"><metadata id="metadata471"/><style id="style2" type="text/css">.st0{fill:#ebebeb}.st1{clip-path:url(#SVGID_2_)}.st2,.st5,.st6{fill:none;stroke:#ff0092;stroke-width:2;stroke-miterlimit:10}.st5,.st6{stroke:#ebebeb;stroke-width:22;stroke-linecap:round;stroke-linejoin:round}.st6{stroke-width:2}</style><g id="g112" transform="translate(-105.60024,-79.900737)"><g id="g20"><circle id="circle4" cx="168.7" cy="200" r="2.1" class="st0" style="fill:#ebebeb"/><circle id="circle6" cx="176.4" cy="207.7" r="2.1" class="st0" style="fill:#ebebeb"/><circle id="circle8" cx="184.1" cy="215.4" r="2.1" class="st0" style="fill:#ebebeb"/><circle id="circle10" cx="191.7" cy="223.1" r="2.1" class="st0" style="fill:#ebebeb"/><circle id="circle12" cx="199.4" cy="230.8" r="2.1" class="st0" style="fill:#ebebeb"/><circle id="circle14" cx="207.1" cy="238.4" r="2.1" class="st0" style="fill:#ebebeb"/><path id="path16" d="m 216.3,247.7 c -0.8,0.8 -2.2,0.8 -3,0 -0.8,-0.8 -0.8,-2.2 0,-3 0.8,-0.8 2.2,-0.8 3,0 0.9,0.8 0.9,2.1 0,3 z" class="st0" style="fill:#ebebeb"/><circle id="circle18" cx="222.5" cy="253.8" r="2.1" class="st0" style="fill:#ebebeb"/></g><g id="g38"><circle id="circle22" cx="161" cy="207.7" r="2.1" class="st0" style="fill:#ebebeb"/><circle id="circle24" cx="168.7" cy="215.4" r="2.1" class="st0" style="fill:#ebebeb"/><circle id="circle26" cx="176.4" cy="223.1" r="2.1" class="st0" style="fill:#ebebeb"/><circle id="circle28" cx="184.1" cy="230.8" r="2.1" class="st0" style="fill:#ebebeb"/><circle id="circle30" cx="191.7" cy="238.4" r="2.1" class="st0" style="fill:#ebebeb"/><path id="path32" d="m 200.9,247.7 c -0.8,0.8 -2.2,0.8 -3,0 -0.8,-0.8 -0.8,-2.2 0,-3 0.8,-0.8 2.2,-0.8 3,0 0.9,0.8 0.9,2.1 0,3 z" class="st0" style="fill:#ebebeb"/><circle id="circle34" cx="207.1" cy="253.8" r="2.1" class="st0" style="fill:#ebebeb"/><circle id="circle36" cx="214.8" cy="261.5" r="2.1" class="st0" style="fill:#ebebeb"/></g><g id="g56"><circle id="circle40" cx="153.3" cy="215.4" r="2.1" class="st0" style="fill:#ebebeb"/><circle id="circle42" cx="161" cy="223.1" r="2.1" class="st0" style="fill:#ebebeb"/><circle id="circle44" cx="168.7" cy="230.8" r="2.1" class="st0" style="fill:#ebebeb"/><circle id="circle46" cx="176.4" cy="238.4" r="2.1" class="st0" style="fill:#ebebeb"/><path id="path48" d="m 185.6,247.7 c -0.8,0.8 -2.2,0.8 -3,0 -0.8,-0.8 -0.8,-2.2 0,-3 0.8,-0.8 2.2,-0.8 3,0 0.8,0.8 0.8,2.1 0,3 z" class="st0" style="fill:#ebebeb"/><circle id="circle50" cx="191.7" cy="253.8" r="2.1" class="st0" style="fill:#ebebeb"/><circle id="circle52" cx="199.4" cy="261.5" r="2.1" class="st0" style="fill:#ebebeb"/><path id="path54" d="m 208.6,270.7 c -0.8,0.8 -2.2,0.8 -3,0 -0.8,-0.8 -0.8,-2.2 0,-3 0.8,-0.8 2.2,-0.8 3,0 0.9,0.8 0.9,2.2 0,3 z" class="st0" style="fill:#ebebeb"/></g><g id="g74"><circle id="circle58" cx="145.6" cy="223.1" r="2.1" class="st0" style="fill:#ebebeb"/><circle id="circle60" cx="153.3" cy="230.8" r="2.1" class="st0" style="fill:#ebebeb"/><circle id="circle62" cx="161" cy="238.4" r="2.1" class="st0" style="fill:#ebebeb"/><path id="path64" d="m 170.2,247.7 c -0.8,0.8 -2.2,0.8 -3,0 -0.8,-0.8 -0.8,-2.2 0,-3 0.8,-0.8 2.2,-0.8 3,0 0.8,0.8 0.8,2.1 0,3 z" class="st0" style="fill:#ebebeb"/><circle id="circle66" cx="176.4" cy="253.8" r="2.1" class="st0" style="fill:#ebebeb"/><circle id="circle68" cx="184.1" cy="261.5" r="2.1" class="st0" style="fill:#ebebeb"/><path id="path70" d="m 193.3,270.7 c -0.8,0.8 -2.2,0.8 -3,0 -0.8,-0.8 -0.8,-2.2 0,-3 0.8,-0.8 2.2,-0.8 3,0 0.8,0.8 0.8,2.2 0,3 z" class="st0" style="fill:#ebebeb"/><circle id="circle72" cx="199.4" cy="276.9" r="2.1" class="st0" style="fill:#ebebeb"/></g><g id="g92"><circle id="circle76" cx="137.9" cy="230.8" r="2.1" class="st0" style="fill:#ebebeb"/><circle id="circle78" cx="145.6" cy="238.4" r="2.1" class="st0" style="fill:#ebebeb"/><path id="path80" d="m 154.8,247.7 c -0.8,0.8 -2.2,0.8 -3,0 -0.8,-0.8 -0.8,-2.2 0,-3 0.8,-0.8 2.2,-0.8 3,0 0.8,0.8 0.8,2.1 0,3 z" class="st0" style="fill:#ebebeb"/><circle id="circle82" cx="161" cy="253.8" r="2.1" class="st0" style="fill:#ebebeb"/><circle id="circle84" cx="168.7" cy="261.5" r="2.1" class="st0" style="fill:#ebebeb"/><path id="path86" d="m 177.9,270.7 c -0.8,0.8 -2.2,0.8 -3,0 -0.8,-0.8 -0.8,-2.2 0,-3 0.8,-0.8 2.2,-0.8 3,0 0.8,0.8 0.8,2.2 0,3 z" class="st0" style="fill:#ebebeb"/><circle id="circle88" cx="184.1" cy="276.9" r="2.1" class="st0" style="fill:#ebebeb"/><path id="path90" d="m 193.3,286.1 c -0.8,0.8 -2.2,0.8 -3,0 -0.8,-0.8 -0.8,-2.2 0,-3 0.8,-0.8 2.2,-0.8 3,0 0.8,0.8 0.8,2.2 0,3 z" class="st0" style="fill:#ebebeb"/></g><g id="g110"><circle id="circle94" cx="130.2" cy="238.4" r="2.1" class="st0" style="fill:#ebebeb"/><path id="path96" d="m 139.4,247.7 c -0.8,0.8 -2.2,0.8 -3,0 -0.8,-0.8 -0.8,-2.2 0,-3 0.8,-0.8 2.2,-0.8 3,0 0.8,0.8 0.8,2.1 0,3 z" class="st0" style="fill:#ebebeb"/><circle id="circle98" cx="145.6" cy="253.8" r="2.1" class="st0" style="fill:#ebebeb"/><circle id="circle100" cx="153.3" cy="261.5" r="2.1" class="st0" style="fill:#ebebeb"/><path id="path102" d="m 162.5,270.7 c -0.8,0.8 -2.2,0.8 -3,0 -0.8,-0.8 -0.8,-2.2 0,-3 0.8,-0.8 2.2,-0.8 3,0 0.8,0.8 0.8,2.2 0,3 z" class="st0" style="fill:#ebebeb"/><circle id="circle104" cx="168.7" cy="276.9" r="2.1" class="st0" style="fill:#ebebeb"/><path id="path106" d="m 177.9,286.1 c -0.8,0.8 -2.2,0.8 -3,0 -0.8,-0.8 -0.8,-2.2 0,-3 0.8,-0.8 2.2,-0.8 3,0 0.8,0.8 0.8,2.2 0,3 z" class="st0" style="fill:#ebebeb"/><circle id="circle108" cx="184.1" cy="292.3" r="2.1" class="st0" style="fill:#ebebeb"/></g></g><g id="g178" transform="translate(-105.60024,-79.900737)"><g id="g176"><defs id="defs115"><circle id="SVGID_1_" cx="233.3" cy="234.3" r="30.1"/></defs><clipPath id="SVGID_2_"><use xlink:href="#SVGID_1_" style="overflow:visible" id="use117" width="100%" height="100%" x="0" y="0"/></clipPath><g id="g174" class="st1" clip-path="url(#SVGID_2_)"><line id="line120" x1="312.9" x2="149.7" y1="49.9" y2="213.1" class="st2" style="fill:none;stroke:#ff0092;stroke-width:2;stroke-miterlimit:10"/><line id="line122" x1="312.9" x2="149.7" y1="58.1" y2="221.2" class="st2" style="fill:none;stroke:#ff0092;stroke-width:2;stroke-miterlimit:10"/><line id="line124" x1="312.9" x2="149.7" y1="66.3" y2="229.4" class="st2" style="fill:none;stroke:#ff0092;stroke-width:2;stroke-miterlimit:10"/><line id="line126" x1="312.9" x2="149.7" y1="74.4" y2="237.6" class="st2" style="fill:none;stroke:#ff0092;stroke-width:2;stroke-miterlimit:10"/><line id="line128" x1="312.9" x2="149.7" y1="82.6" y2="245.7" class="st2" style="fill:none;stroke:#ff0092;stroke-width:2;stroke-miterlimit:10"/><line id="line130" x1="312.9" x2="149.7" y1="90.8" y2="253.9" class="st2" style="fill:none;stroke:#ff0092;stroke-width:2;stroke-miterlimit:10"/><line id="line132" x1="312.9" x2="149.7" y1="98.9" y2="262.1" class="st2" style="fill:none;stroke:#ff0092;stroke-width:2;stroke-miterlimit:10"/><line id="line134" x1="312.9" x2="149.7" y1="107.1" y2="270.2" class="st2" style="fill:none;stroke:#ff0092;stroke-width:2;stroke-miterlimit:10"/><line id="line136" x1="312.9" x2="149.7" y1="115.3" y2="278.4" class="st2" style="fill:none;stroke:#ff0092;stroke-width:2;stroke-miterlimit:10"/><line id="line138" x1="312.9" x2="149.7" y1="123.4" y2="286.6" class="st2" style="fill:none;stroke:#ff0092;stroke-width:2;stroke-miterlimit:10"/><line id="line140" x1="312.9" x2="149.7" y1="131.6" y2="294.8" class="st2" style="fill:none;stroke:#ff0092;stroke-width:2;stroke-miterlimit:10"/><line id="line142" x1="312.9" x2="149.7" y1="139.8" y2="302.9" class="st2" style="fill:none;stroke:#ff0092;stroke-width:2;stroke-miterlimit:10"/><line id="line144" x1="312.9" x2="149.7" y1="147.9" y2="311.1" class="st2" style="fill:none;stroke:#ff0092;stroke-width:2;stroke-miterlimit:10"/><line id="line146" x1="312.9" x2="149.7" y1="156.1" y2="319.2" class="st2" style="fill:none;stroke:#ff0092;stroke-width:2;stroke-miterlimit:10"/><line id="line148" x1="312.9" x2="149.7" y1="164.3" y2="327.4" class="st2" style="fill:none;stroke:#ff0092;stroke-width:2;stroke-miterlimit:10"/><line id="line150" x1="312.9" x2="149.7" y1="172.4" y2="335.6" class="st2" style="fill:none;stroke:#ff0092;stroke-width:2;stroke-miterlimit:10"/><line id="line152" x1="312.9" x2="149.7" y1="180.6" y2="343.8" class="st2" style="fill:none;stroke:#ff0092;stroke-width:2;stroke-miterlimit:10"/><line id="line154" x1="312.9" x2="149.7" y1="188.8" y2="351.9" class="st2" style="fill:none;stroke:#ff0092;stroke-width:2;stroke-miterlimit:10"/><line id="line156" x1="312.9" x2="149.7" y1="196.9" y2="360.1" class="st2" style="fill:none;stroke:#ff0092;stroke-width:2;stroke-miterlimit:10"/><line id="line158" x1="312.9" x2="149.7" y1="205.1" y2="368.3" class="st2" style="fill:none;stroke:#ff0092;stroke-width:2;stroke-miterlimit:10"/><line id="line160" x1="312.9" x2="149.7" y1="213.3" y2="376.4" class="st2" style="fill:none;stroke:#ff0092;stroke-width:2;stroke-miterlimit:10"/><line id="line162" x1="312.9" x2="149.7" y1="221.4" y2="384.6" class="st2" style="fill:none;stroke:#ff0092;stroke-width:2;stroke-miterlimit:10"/><line id="line164" x1="312.9" x2="149.7" y1="229.6" y2="392.8" class="st2" style="fill:none;stroke:#ff0092;stroke-width:2;stroke-miterlimit:10"/><line id="line166" x1="312.9" x2="149.7" y1="237.8" y2="400.9" class="st2" style="fill:none;stroke:#ff0092;stroke-width:2;stroke-miterlimit:10"/><line id="line168" x1="312.9" x2="149.7" y1="245.9" y2="409.1" class="st2" style="fill:none;stroke:#ff0092;stroke-width:2;stroke-miterlimit:10"/><line id="line170" x1="312.9" x2="149.7" y1="254.1" y2="417.3" class="st2" style="fill:none;stroke:#ff0092;stroke-width:2;stroke-miterlimit:10"/><line id="line172" x1="312.9" x2="149.7" y1="262.3" y2="425.4" class="st2" style="fill:none;stroke:#ff0092;stroke-width:2;stroke-miterlimit:10"/></g></g></g><g id="g210" transform="translate(-105.60024,-79.900737)"><circle id="circle196" cx="209.1" cy="311.5" r="5.2" class="st0" style="fill:#ebebeb"/><circle id="circle198" cx="192.8" cy="327.9" r="5.2" class="st0" style="fill:#ebebeb"/><circle id="circle200" cx="176.4" cy="344.4" r="5.2" class="st0" style="fill:#ebebeb"/><circle id="circle202" cx="160" cy="360.8" r="5.2" class="st0" style="fill:#ebebeb"/><circle id="circle204" cx="143.6" cy="377.3" r="5.2" class="st0" style="fill:#ebebeb"/><circle id="ellipse206" cx="127.2" cy="393.7" r="5.2" class="st0" transform="matrix(0.06903548,-0.9976,0.9976,0.06903548,-274.3718,493.4268)" style="fill:#ebebeb"/><circle id="ellipse208" cx="110.8" cy="410.2" r="5.2" class="st0" transform="matrix(1,-0.00185822,0.00185822,1,-0.762,0.2066)" style="fill:#ebebeb"/></g><line id="line240" x1="233.8" x2="97.7" y1="144.499" y2="280.599" class="st5" style="fill:none;stroke:#ebebeb;stroke-width:22;stroke-linecap:round;stroke-linejoin:round;stroke-miterlimit:10"/><g id="g398" transform="translate(-105.60024,-79.900737)"><line id="line390" x1="277" x2="265.7" y1="190.6" y2="201.9" class="st6" style="fill:none;stroke:#ebebeb;stroke-width:2;stroke-linecap:round;stroke-linejoin:round;stroke-miterlimit:10"/><line id="line392" x1="291.8" x2="280.6" y1="175.7" y2="187" class="st6" style="fill:none;stroke:#ebebeb;stroke-width:2;stroke-linecap:round;stroke-linejoin:round;stroke-miterlimit:10"/><line id="line394" x1="306.7" x2="295.5" y1="160.9" y2="172.1" class="st6" style="fill:none;stroke:#ebebeb;stroke-width:2;stroke-linecap:round;stroke-linejoin:round;stroke-miterlimit:10"/><line id="line396" x1="321.6" x2="310.3" y1="146" y2="157.2" class="st6" style="fill:none;stroke:#ebebeb;stroke-width:2;stroke-linecap:round;stroke-linejoin:round;stroke-miterlimit:10"/></g></svg>