<svg xmlns="http://www.w3.org/2000/svg" xmlns:svg="http://www.w3.org/2000/svg" id="svg5780" width="297mm" height="210mm" version="1.1" viewBox="0 0 297 210"><defs id="defs5774"><clipPath id="clipPath168" clipPathUnits="userSpaceOnUse"><path id="path166" d="m 770.919,281.119 h 45.726 v -39.6 h -45.726 z"/></clipPath></defs><metadata id="metadata5777"/><g id="layer1" transform="translate(0,-87)"><g id="g5937" transform="matrix(3.6047759,0,0,3.6047759,-3058.8708,118.74579)"><g id="g136" transform="matrix(0.35277777,0,0,-0.35277777,880.59728,17.465061)"><path id="path138" style="fill:#fff;fill-opacity:1;fill-rule:nonzero;stroke:none" d="m 0,0 -4.462,-11.155 h 8.96 z M 5.688,-14.167 H -5.689 l -2.455,-6.098 h -3.531 l 9.816,23.834 h 3.941 l 9.815,-23.834 H 8.143 Z"/></g><g id="g140" transform="matrix(0.35277777,0,0,-0.35277777,887.22668,24.61396)"><path id="path142" style="fill:#fff;fill-opacity:1;fill-rule:nonzero;stroke:none" d="M 0,0 H -3.309 V 17.811 H 0 v -2.232 c 0.967,1.637 2.491,2.678 4.462,2.678 1.115,0 2.082,-0.261 2.714,-0.781 L 5.801,14.39 C 5.205,14.799 4.351,15.096 3.495,15.096 1.339,15.096 0,13.237 0,10.263 Z"/></g><g id="g144" transform="matrix(0.35277777,0,0,-0.35277777,892.10181,24.61396)"><path id="path146" style="fill:#fff;fill-opacity:1;fill-rule:nonzero;stroke:none" d="M 0,0 H -3.309 V 17.811 H 0 v -2.232 c 1.079,1.637 2.863,2.678 5.131,2.678 2.789,0 4.871,-1.339 5.949,-3.608 0.967,2.083 2.938,3.608 5.801,3.608 4.127,0 6.804,-2.789 6.804,-7.362 V 0 h -3.309 v 10.374 c 0,2.938 -1.599,4.796 -4.239,4.796 -2.677,0 -4.313,-1.858 -4.313,-4.796 V 0 H 8.552 v 10.374 c 0,2.938 -1.636,4.796 -4.276,4.796 C 1.6,15.17 0,13.312 0,10.374 Z"/></g><g id="g148" transform="matrix(0.35277777,0,0,-0.35277777,910.68879,24.61396)"><path id="path150" style="fill:#fff;fill-opacity:1;fill-rule:nonzero;stroke:none" d="M 0,0 H -3.309 V 17.811 H 0 v -2.232 c 0.967,1.637 2.491,2.678 4.462,2.678 1.116,0 2.083,-0.261 2.715,-0.781 L 5.801,14.39 C 5.206,14.799 4.351,15.096 3.495,15.096 1.339,15.096 0,13.237 0,10.263 Z"/></g><path id="path152" style="fill:#fff;fill-opacity:1;fill-rule:nonzero;stroke:none;stroke-width:.35277775" d="m 915.32321,24.613819 h -1.16734 v -6.283325 h 1.16734 z m -1.31163,-8.020755 c 0,-0.393347 0.32773,-0.721431 0.72143,-0.721431 0.39335,0 0.72108,0.328084 0.72108,0.721431 0,0.393347 -0.32773,0.72143 -0.72108,0.72143 -0.3937,0 -0.72143,-0.328083 -0.72143,-0.72143"/><g id="g154" transform="matrix(0.35277777,0,0,-0.35277777,921.87778,21.465841)"><path id="path156" style="fill:#fff;fill-opacity:1;fill-rule:nonzero;stroke:none" d="m 0,0 c 0,3.495 -2.417,6.246 -5.763,6.246 -3.346,0 -5.8,-2.751 -5.8,-6.246 0,-3.458 2.454,-6.283 5.8,-6.283 C -2.417,-6.283 0,-3.458 0,0 m 0,-6.135 c -1.376,-1.97 -3.532,-3.234 -6.246,-3.234 -4.834,0 -8.626,3.977 -8.626,9.369 0,5.28 3.643,9.333 8.626,9.333 2.714,0 4.87,-1.19 6.246,-3.123 V 8.887 H 3.309 V -8.924 H 0 Z"/></g><g id="g158" transform="matrix(0.35277777,0,0,-0.35277777,905.01131,19.170388)"><path id="path160" style="fill:#fff;fill-opacity:1;fill-rule:nonzero;stroke:none" d="M 0,0 C 2.759,0 4.788,-1.822 5.335,-5.066 H -5.408 C -4.896,-2.145 -2.866,0 0,0 m -0.037,2.826 c -5.057,0 -8.812,-4.165 -8.812,-9.333 0,-5.168 3.904,-9.369 9.332,-9.369 2.864,0 5.589,1.328 7.287,3.631 l -2.405,1.7 c -1.479,-1.644 -2.762,-2.394 -4.77,-2.394 -3.339,0 -5.661,2.32 -6.079,5.456 H 8.524 c 0,0 0.108,0.791 0.108,1.311 0,5.02 -3.687,8.998 -8.669,8.998"/></g><g id="g162" transform="matrix(0.35277777,0,0,-0.35277777,584.50374,113.28521)"><g id="g200"><g style="opacity:.55000299" id="g198" clip-path="url(#clipPath168)"><g id="g172" transform="translate(793.7822,272.3193)"><path id="path170" style="fill:#fff;fill-opacity:1;fill-rule:nonzero;stroke:none" d="m 0,0 -7.621,-4.4 v -8.8 L 0,-17.6 l 7.621,4.4 v 8.8 z"/></g><g id="g176" transform="translate(809.0244,272.3193)"><path id="path174" style="fill:#fff;fill-opacity:1;fill-rule:nonzero;stroke:none" d="M 0,0 V 8.8 L -7.621,4.4 Z"/></g><g id="g180" transform="translate(778.54,263.5195)"><path id="path178" style="fill:#fff;fill-opacity:1;fill-rule:nonzero;stroke:none" d="M 0,0 V 8.8 L -7.621,4.399 Z"/></g><g id="g184" transform="translate(801.4033,241.5195)"><path id="path182" style="fill:#fff;fill-opacity:1;fill-rule:nonzero;stroke:none" d="M 0,0 V 8.8 L -7.621,4.399 Z"/></g><g id="g188" transform="translate(778.54,281.1191)"><path id="path186" style="fill:#fff;fill-opacity:1;fill-rule:nonzero;stroke:none" d="m 0,0 v -8.8 l 7.621,4.401 z"/></g><g id="g192" transform="translate(809.0244,272.3193)"><path id="path190" style="fill:#fff;fill-opacity:1;fill-rule:nonzero;stroke:none" d="m 0,0 v -8.8 l 7.621,4.4 z"/></g><g id="g196" transform="translate(786.1611,250.3193)"><path id="path194" style="fill:#fff;fill-opacity:1;fill-rule:nonzero;stroke:none" d="m 0,0 v -8.8 l 7.621,4.4 z"/></g></g></g></g><g id="g202" transform="matrix(0.35277777,0,0,-0.35277777,861.84391,12.560284)"><path id="path204" style="fill:#fff;fill-opacity:1;fill-rule:nonzero;stroke:none" d="M 0,0 -7.621,-4.4 0,-8.8 7.621,-4.4 Z"/></g><g id="g206" transform="matrix(0.35277777,0,0,-0.35277777,869.90957,14.112647)"><path id="path208" style="fill:#fff;fill-opacity:1;fill-rule:nonzero;stroke:none" d="M 0,0 -7.621,4.4 -15.242,0 -7.621,-4.399 Z"/></g><g id="g210" transform="matrix(0.35277777,0,0,-0.35277777,867.22101,18.769385)"><path id="path212" style="fill:#fff;fill-opacity:1;fill-rule:nonzero;stroke:none" d="m 0,0 v 0 -8.8 l 7.621,4.401 V 4.4 L 0,8.801 -7.621,4.4 Z"/></g><g id="g214" transform="matrix(0.35277777,0,0,-0.35277777,861.84391,18.769385)"><path id="path216" style="fill:#fff;fill-opacity:1;fill-rule:nonzero;stroke:none" d="M 0,0 7.621,4.4 0,8.801 -7.621,4.4 V -4.399 L 0,-8.8 Z"/></g><g id="g218" transform="matrix(0.35277777,0,0,-0.35277777,867.22101,28.082504)"><path id="path220" style="fill:#fff;fill-opacity:1;fill-rule:nonzero;stroke:none" d="M 0,0 7.621,4.399 V 13.2 L 0,8.8 Z"/></g><g id="g222" transform="matrix(0.35277777,0,0,-0.35277777,869.90957,20.321397)"><path id="path224" style="fill:#fff;fill-opacity:1;fill-rule:nonzero;stroke:none" d="m 0,0 v -8.8 l 7.621,4.4 v 8.799 z"/></g><g id="g226" transform="matrix(0.35277777,0,0,-0.35277777,859.15534,26.530494)"><path id="path228" style="fill:#fff;fill-opacity:1;fill-rule:nonzero;stroke:none" d="M 0,0 7.621,-4.399 V 4.4 L 0,8.801 Z"/></g><g id="g230" transform="matrix(0.35277777,0,0,-0.35277777,856.46678,18.769385)"><path id="path232" style="fill:#fff;fill-opacity:1;fill-rule:nonzero;stroke:none" d="m 0,0 v -8.8 l 7.621,-4.399 v 8.8 z"/></g><g id="g234" transform="matrix(0.35277777,0,0,-0.35277777,864.53244,23.425769)"><path id="path236" style="fill:#fff;fill-opacity:1;fill-rule:nonzero;stroke:none" d="M 0,0 -7.621,4.399 V -4.4 L 0,-8.801 7.621,-4.4 v 8.799 z"/></g></g></g></svg>