<svg xmlns="http://www.w3.org/2000/svg" xmlns:svg="http://www.w3.org/2000/svg" id="svg904" width="297mm" height="210mm" version="1.1" viewBox="0 0 297 210"><metadata id="metadata901"/><g id="layer1" transform="translate(0,-87)"><g id="g957" transform="matrix(1.2716849,0,0,-1.2716849,-951.86593,800.63958)"><g id="g238" transform="translate(839.3203,486.7051)"><path id="path240" style="fill:#fff;fill-opacity:1;fill-rule:nonzero;stroke:none" d="m 0,0 -4.462,-11.154 h 8.96 z M 5.688,-14.166 H -5.689 l -2.455,-6.098 h -3.531 L -1.859,3.57 h 3.941 l 9.815,-23.834 H 8.143 Z"/></g><g id="g242" transform="translate(858.1123,466.4414)"><path id="path244" style="fill:#fff;fill-opacity:1;fill-rule:nonzero;stroke:none" d="M 0,0 H -3.309 V 17.81 H 0 v -2.231 c 0.967,1.636 2.491,2.677 4.462,2.677 1.115,0 2.082,-0.26 2.714,-0.781 L 5.801,14.389 C 5.205,14.798 4.351,15.096 3.495,15.096 1.339,15.096 0,13.236 0,10.262 Z"/></g><g id="g246" transform="translate(871.9316,466.4414)"><path id="path248" style="fill:#fff;fill-opacity:1;fill-rule:nonzero;stroke:none" d="M 0,0 H -3.309 V 17.81 H 0 v -2.231 c 1.079,1.636 2.863,2.677 5.131,2.677 2.789,0 4.871,-1.339 5.949,-3.607 0.967,2.082 2.938,3.607 5.801,3.607 4.127,0 6.804,-2.789 6.804,-7.362 V 0 h -3.309 v 10.374 c 0,2.937 -1.599,4.796 -4.239,4.796 -2.677,0 -4.313,-1.859 -4.313,-4.796 V 0 H 8.552 v 10.374 c 0,2.937 -1.636,4.796 -4.276,4.796 C 1.6,15.17 0,13.311 0,10.374 Z"/></g><g id="g250" transform="translate(924.6191,466.4414)"><path id="path252" style="fill:#fff;fill-opacity:1;fill-rule:nonzero;stroke:none" d="M 0,0 H -3.309 V 17.81 H 0 v -2.231 c 0.967,1.636 2.491,2.677 4.462,2.677 1.116,0 2.083,-0.26 2.715,-0.781 L 5.801,14.389 C 5.206,14.798 4.351,15.096 3.495,15.096 1.339,15.096 0,13.236 0,10.262 Z"/></g><path id="path254" style="fill:#fff;fill-opacity:1;fill-rule:nonzero;stroke:none" d="m 937.756,466.441 h -3.309 v 17.81 h 3.309 z m -3.718,22.736 c 0,1.115 0.929,2.045 2.045,2.045 1.115,0 2.044,-0.93 2.044,-2.045 0,-1.115 -0.929,-2.045 -2.044,-2.045 -1.116,0 -2.045,0.93 -2.045,2.045"/><g id="g256" transform="translate(956.3359,475.3647)"><path id="path258" style="fill:#fff;fill-opacity:1;fill-rule:nonzero;stroke:none" d="m 0,0 c 0,3.495 -2.417,6.247 -5.763,6.247 -3.346,0 -5.8,-2.752 -5.8,-6.247 0,-3.458 2.454,-6.284 5.8,-6.284 C -2.417,-6.284 0,-3.458 0,0 m 0,-6.135 c -1.376,-1.97 -3.532,-3.235 -6.246,-3.235 -4.834,0 -8.626,3.979 -8.626,9.37 0,5.28 3.643,9.333 8.626,9.333 2.714,0 4.87,-1.19 6.246,-3.124 V 8.886 H 3.309 V -8.923 H 0 Z"/></g><g id="g260" transform="translate(908.5254,481.8716)"><path id="path262" style="fill:#fff;fill-opacity:1;fill-rule:nonzero;stroke:none" d="M 0,0 C 2.759,0 4.788,-1.822 5.335,-5.066 H -5.408 C -4.896,-2.145 -2.866,0 0,0 m -0.037,2.826 c -5.057,0 -8.812,-4.164 -8.812,-9.333 0,-5.168 3.904,-9.369 9.332,-9.369 2.864,0 5.589,1.328 7.287,3.631 l -2.405,1.7 c -1.479,-1.645 -2.762,-2.394 -4.77,-2.394 -3.339,0 -5.661,2.32 -6.079,5.455 H 8.524 c 0,0 0.108,0.792 0.108,1.312 0,5.019 -3.687,8.998 -8.669,8.998"/></g><g id="g264" transform="translate(793.7822,487.4087)"><path id="path266" style="fill:#ff9dc3;fill-opacity:1;fill-rule:nonzero;stroke:none" d="m 0,0 -7.621,-4.4 v -8.8 L 0,-17.6 l 7.621,4.4 v 8.8 z"/></g><g id="g268" transform="translate(809.0244,487.4087)"><path id="path270" style="fill:#ff9dc3;fill-opacity:1;fill-rule:nonzero;stroke:none" d="M 0,0 V 8.8 L -7.621,4.4 Z"/></g><g id="g272" transform="translate(778.54,478.6089)"><path id="path274" style="fill:#ff9dc3;fill-opacity:1;fill-rule:nonzero;stroke:none" d="M 0,0 V 8.8 L -7.621,4.4 Z"/></g><g id="g276" transform="translate(801.4033,456.6089)"><path id="path278" style="fill:#ff9dc3;fill-opacity:1;fill-rule:nonzero;stroke:none" d="M 0,0 V 8.8 L -7.621,4.4 Z"/></g><g id="g280" transform="translate(778.54,496.2085)"><path id="path282" style="fill:#ff9dc3;fill-opacity:1;fill-rule:nonzero;stroke:none" d="m 0,0 v -8.8 l 7.621,4.4 z"/></g><g id="g284" transform="translate(809.0244,487.4087)"><path id="path286" style="fill:#ff9dc3;fill-opacity:1;fill-rule:nonzero;stroke:none" d="m 0,0 v -8.8 l 7.621,4.4 z"/></g><g id="g288" transform="translate(786.1611,465.4087)"><path id="path290" style="fill:#ff9dc3;fill-opacity:1;fill-rule:nonzero;stroke:none" d="m 0,0 v -8.8 l 7.621,4.4 z"/></g><g id="g292" transform="translate(786.1611,500.6089)"><path id="path294" style="fill:#fff;fill-opacity:1;fill-rule:nonzero;stroke:none" d="M 0,0 -7.621,-4.4 0,-8.8 7.621,-4.4 Z"/></g><g id="g296" transform="translate(809.0244,496.2085)"><path id="path298" style="fill:#fff;fill-opacity:1;fill-rule:nonzero;stroke:none" d="M 0,0 -7.621,4.4 -15.242,0 -7.621,-4.4 Z"/></g><g id="g300" transform="translate(801.4033,483.0088)"><path id="path302" style="fill:#fff;fill-opacity:1;fill-rule:nonzero;stroke:none" d="m 0,0 v 0 -8.8 l 7.621,4.4 V 4.4 L 0,8.8 -7.621,4.4 Z"/></g><g id="g304" transform="translate(786.1611,483.0088)"><path id="path306" style="fill:#fff;fill-opacity:1;fill-rule:nonzero;stroke:none" d="M 0,0 7.621,4.4 0,8.8 -7.621,4.4 V -4.4 L 0,-8.8 Z"/></g><g id="g308" transform="translate(801.4033,456.6089)"><path id="path310" style="fill:#fff;fill-opacity:1;fill-rule:nonzero;stroke:none" d="m 0,0 7.621,4.4 v 8.8 L 0,8.8 Z"/></g><g id="g312" transform="translate(809.0244,478.6089)"><path id="path314" style="fill:#fff;fill-opacity:1;fill-rule:nonzero;stroke:none" d="m 0,0 v -8.8 l 7.621,4.4 v 8.8 z"/></g><g id="g316" transform="translate(778.54,461.0088)"><path id="path318" style="fill:#fff;fill-opacity:1;fill-rule:nonzero;stroke:none" d="M 0,0 7.621,-4.4 V 4.4 L 0,8.8 Z"/></g><g id="g320" transform="translate(770.9189,483.0088)"><path id="path322" style="fill:#fff;fill-opacity:1;fill-rule:nonzero;stroke:none" d="m 0,0 v -8.8 l 7.621,-4.4 v 8.8 z"/></g><g id="g324" transform="translate(793.7822,469.8086)"><path id="path326" style="fill:#fff;fill-opacity:1;fill-rule:nonzero;stroke:none" d="M 0,0 -7.621,4.4 V -4.4 L 0,-8.8 7.621,-4.4 v 8.8 z"/></g><g id="g328" transform="translate(801.4033,491.8086)"><path id="path330" style="fill:#ff0089;fill-opacity:1;fill-rule:nonzero;stroke:none" d="M 0,0 -7.621,4.4 -15.242,0 -7.621,-4.4 Z"/></g><g id="g332" transform="translate(809.0244,478.6089)"><path id="path334" style="fill:#ff0089;fill-opacity:1;fill-rule:nonzero;stroke:none" d="m 0,0 -7.621,-4.4 v -8.8 L 0,-8.8 Z"/></g><g id="g336" transform="translate(778.54,478.6089)"><path id="path338" style="fill:#ff0089;fill-opacity:1;fill-rule:nonzero;stroke:none" d="m 0,0 7.621,-4.4 v -8.8 L 0,-8.8 Z"/></g></g></g></svg>